# xmcd
#
# Track frame offsets:
#	150
#	13304
#	31104
#	47653
#	60241
#	76519
#	91855
#	105759
#	122010
#	135763
#	149761
#	163858
#	181192
#	199056
#	214497
#	231042
#	250465
#	266270
#	282212
#
# Disc length: 3958 seconds
#
# Revision: 1
# Processed by: cddbd v1.5.2PL0 Copyright (c) Steve Scherf et al.
# Submitted via: audiograbber 1.82.02
#
DISCID=f70f7413
DTITLE=Various Artist - Country Radio - January 2017
DYEAR=2017
DGENRE=Country
TTITLE0=Ryan Kinder - Close
TTITLE1=Drake White - Makin' Me Look Good Again
TTITLE2=Aaron Watson - Outta Style
TTITLE3=Jackie Lee - Getting Over You
TTITLE4=Cody Johnson - With You I Am
TTITLE5=Gretchen Wilson - Rowdy
TTITLE6=Blake Shelton - A Guy With A Girl
TTITLE7=Midland - Drinkin' Problem
TTITLE8=Melodime - Chance On Me
TTITLE9=Ty Herndon - That Kind Of Night
TTITLE10=Curtis Grimes - From Where I'm Standing
TTITLE11=Billy Currington - Do I Make You Wanna
TTITLE12=Jenna Torres - Heart On Wheels
TTITLE13=Dierks Bentley - Black
TTITLE14=William Michael Morgan - Missing
TTITLE15=Little Big Town - Better Man
TTITLE16=LoCash - Ring On Every Finger
TTITLE17=Marty Heddin - Game Changer
TTITLE18=Caroline Jones - Tough Guys
EXTD=
EXTT0=
EXTT1=
EXTT2=
EXTT3=
EXTT4=
EXTT5=
EXTT6=
EXTT7=
EXTT8=
EXTT9=
EXTT10=
EXTT11=
EXTT12=
EXTT13=
EXTT14=
EXTT15=
EXTT16=
EXTT17=
EXTT18=
PLAYORDER=
